<svg width="195" height="36" viewBox="0 0 195 36" fill="none" xmlns="http://www.w3.org/2000/svg">
<g clip-path="url(#clip0_814_40)">
<path d="M18.1028 4.19041V0C13.3017 0 8.69713 1.89642 5.30219 5.27208C1.90725 8.64773 0 13.2261 0 18C0 22.7739 1.90725 27.3523 5.30219 30.7279C8.69713 34.1036 13.3017 36 18.1028 36V31.8096C14.7809 31.8109 11.5681 30.6308 9.0449 28.4824C6.5217 26.334 4.85454 23.3591 4.34468 20.0952H14.0333V15.9048H4.37364C4.88274 12.6458 6.54569 9.67474 9.06286 7.52696C11.58 5.37919 14.7859 4.19594 18.1028 4.19041Z" fill="#001F3F"/>
<path d="M30.4859 11.7144H35.0912C33.8007 8.27113 31.4813 5.30305 28.4445 3.20895C25.4077 1.11485 21.7991 -0.00494958 18.1035 1.64461e-05V4.19042C20.6643 4.18832 23.1759 4.88985 25.3609 6.21759C27.546 7.54532 29.3196 9.4476 30.4859 11.7144Z" fill="#FFC90E"/>
<path d="M36.0829 15.9043H22.0641V20.0947H31.8324C31.3239 23.3592 29.6571 26.335 27.1336 28.4836C24.6101 30.6323 21.3965 31.8119 18.0742 31.8091V35.9995C22.8754 35.9995 27.4799 34.1031 30.8749 30.7274C34.2698 27.3518 36.177 22.7734 36.177 17.9995C36.1858 17.2999 36.1543 16.6003 36.0829 15.9043Z" fill="#FFC90E"/>
<path d="M53.3893 9.48267V14.1339H59.7832V16.8843H53.3893V21.7155H60.5508V24.5955H49.7832V6.63867H60.5508V9.48267H53.3893Z" fill="#001F3F"/>
<path d="M75.5548 11.9024C76.5944 13.1653 77.1121 14.774 77.003 16.4024V24.5888H73.4186V16.8056C73.4774 15.858 73.1661 14.9243 72.5497 14.1992C72.2434 13.8849 71.873 13.6393 71.4633 13.4791C71.0536 13.3189 70.6142 13.2477 70.1746 13.2704C69.7177 13.2507 69.2618 13.3292 68.8381 13.5007C68.4145 13.6722 68.0331 13.9325 67.7199 14.264C67.0597 15.0607 66.7307 16.0781 66.8003 17.108V24.5888H63.1797V10.4984H66.8003V13.3208C67.154 12.3959 67.8059 11.6136 68.654 11.096C69.5495 10.5539 70.5818 10.2767 71.6301 10.2968C72.3627 10.2616 73.0941 10.3872 73.7724 10.6647C74.4507 10.9422 75.0592 11.3648 75.5548 11.9024Z" fill="#001F3F"/>
<path d="M93.3808 18.2299H82.997C82.9584 19.2513 83.3251 20.2469 84.018 21.0019C84.6546 21.5937 85.5002 21.9119 86.3714 21.8875C87.1138 21.9141 87.8452 21.7021 88.4568 21.2827C89.0045 20.881 89.3815 20.2904 89.514 19.6267H93.3301C93.1489 20.5908 92.7366 21.4972 92.1281 22.2691C91.5002 23.0611 90.6874 23.6889 89.7602 24.0979C88.6661 24.5688 87.4808 24.7937 86.2891 24.7563C85.0975 24.719 83.9288 24.4204 82.8667 23.8819C81.8063 23.3073 80.9361 22.4395 80.3612 21.3835C79.7752 20.1843 79.4707 18.8684 79.4707 17.5351C79.4707 16.2018 79.7752 14.8859 80.3612 13.6867C80.9316 12.6274 81.803 11.7585 82.8667 11.1883C84.0031 10.5979 85.2704 10.3008 86.5524 10.3243C87.8281 10.2946 89.09 10.5922 90.2164 11.1883C91.237 11.7357 92.0806 12.5595 92.6494 13.5643C93.2322 14.6174 93.5268 15.8041 93.5039 17.0059C93.4975 17.4166 93.4563 17.8261 93.3808 18.2299ZM88.9637 14.0323C88.3048 13.439 87.4409 13.1217 86.5524 13.1467C85.6508 13.1216 84.7733 13.4382 84.0977 14.0323C83.7471 14.3736 83.469 14.7814 83.2799 15.2316C83.0908 15.6818 82.9946 16.1652 82.997 16.6531H89.8616C89.9212 16.1772 89.8714 15.694 89.7158 15.24C89.5603 14.786 89.3031 14.3731 88.9637 14.0323Z" fill="#001F3F"/>
<path d="M101.767 11.0728C102.642 10.554 103.644 10.2849 104.663 10.2952V14.1328H103.621C100.985 14.1328 99.6596 15.3568 99.6596 17.7976V24.5872H96.0391V10.4968H99.6596V13.1968C100.168 12.3211 100.893 11.5898 101.767 11.0728Z" fill="#001F3F"/>
<path d="M115.294 11.1605C116.126 11.7012 116.761 12.4939 117.104 13.4213V10.4981H120.688V24.6389C120.707 25.8571 120.44 27.0628 119.906 28.1597C119.394 29.1876 118.585 30.0401 117.582 30.6077C116.434 31.2323 115.139 31.5405 113.831 31.5005C112.062 31.5858 110.316 31.0787 108.871 30.0605C107.612 29.0971 106.785 27.6798 106.568 26.1149H110.138C110.322 26.796 110.746 27.3887 111.333 27.7853C112.008 28.2072 112.796 28.4156 113.592 28.3829C114.059 28.4041 114.525 28.333 114.964 28.1735C115.403 28.0141 115.805 27.7695 116.148 27.4541C116.496 27.0778 116.761 26.6341 116.928 26.1509C117.095 25.6676 117.16 25.1553 117.119 24.6461V21.6437C116.775 22.5751 116.141 23.3725 115.308 23.9189C114.395 24.5039 113.324 24.8001 112.238 24.7685C111.104 24.7845 109.988 24.4852 109.016 23.9045C108.039 23.3056 107.261 22.4342 106.778 21.3989C106.248 20.1831 105.975 18.872 105.975 17.5469C105.975 16.2217 106.248 14.9107 106.778 13.6949C107.263 12.6629 108.041 11.7945 109.016 11.1965C109.988 10.6157 111.104 10.3165 112.238 10.3325C113.317 10.3005 114.381 10.5887 115.294 11.1605ZM110.638 14.5445C109.92 15.3739 109.554 16.4475 109.617 17.5397C109.552 18.63 109.918 19.7024 110.638 20.5277C111.362 21.2275 112.332 21.6189 113.342 21.6189C114.352 21.6189 115.322 21.2275 116.047 20.5277C116.731 19.6859 117.104 18.6364 117.104 17.5541C117.104 16.4718 116.731 15.4222 116.047 14.5805C115.326 13.8739 114.355 13.4777 113.342 13.4777C112.33 13.4777 111.359 13.8739 110.638 14.5805V14.5445Z" fill="#001F3F"/>
<path d="M126.386 10.498L130.245 20.0596L133.866 10.498H137.827L129.137 31.2988H125.148L128.341 24.178L122.389 10.498H126.386Z" fill="#001F3F"/>
<path d="M153.886 8.07129C155.326 9.13241 156.32 10.6871 156.674 12.4345H152.887C152.537 11.6259 151.942 10.9462 151.185 10.4905C150.359 9.99174 149.406 9.74165 148.44 9.77049C147.472 9.7531 146.517 10.0023 145.682 10.4905C144.873 10.9713 144.223 11.6771 143.813 12.5209C143.348 13.4885 143.12 14.5519 143.147 15.6241C143.05 17.2327 143.596 18.8143 144.668 20.0233C145.211 20.5604 145.862 20.9782 146.578 21.2498C147.294 21.5214 148.059 21.6407 148.824 21.6001C150.039 21.6287 151.224 21.2224 152.162 20.4553C153.12 19.6403 153.758 18.5162 153.965 17.2801H147.861V14.7097H156.985V18.1657C156.73 19.3538 156.222 20.4735 155.493 21.4489C154.733 22.4652 153.74 23.2871 152.597 23.8465C151.313 24.4699 149.898 24.7808 148.469 24.7537C146.83 24.7862 145.211 24.3862 143.777 23.5945C142.439 22.8433 141.347 21.7231 140.635 20.3689C139.901 18.8948 139.52 17.2723 139.52 15.6277C139.52 13.983 139.901 12.3606 140.635 10.8865C141.348 9.53176 142.432 8.40582 143.763 7.63928C145.189 6.84102 146.804 6.43819 148.44 6.47289C150.382 6.4013 152.294 6.96258 153.886 8.07129Z" fill="#001F3F"/>
<path d="M159.895 5.0402C160.341 4.66007 160.916 4.46424 161.502 4.49301C162.091 4.46531 162.668 4.6609 163.117 5.0402C163.32 5.22037 163.479 5.44305 163.584 5.6921C163.69 5.94116 163.738 6.21035 163.725 6.4802C163.733 6.74095 163.682 7.00006 163.577 7.23903C163.472 7.478 163.315 7.69093 163.117 7.8626C162.668 8.24191 162.091 8.43749 161.502 8.4098C160.916 8.43857 160.341 8.24274 159.895 7.8626C159.695 7.6926 159.536 7.48016 159.429 7.24092C159.323 7.00168 159.272 6.74173 159.279 6.4802C159.266 6.2096 159.315 5.93956 159.422 5.69023C159.528 5.4409 159.69 5.2187 159.895 5.0402ZM163.291 10.4906V24.581H159.67V10.4978L163.291 10.4906Z" fill="#001F3F"/>
<path d="M175.181 11.1609C176.017 11.6993 176.655 12.4925 176.999 13.4217V10.4985H180.576V24.6393C180.593 25.8565 180.328 27.0613 179.801 28.1601C179.289 29.1906 178.477 30.0437 177.47 30.6081C176.324 31.2328 175.032 31.5411 173.726 31.5009C171.957 31.5862 170.211 31.0792 168.766 30.0609C167.507 29.0976 166.679 27.6802 166.463 26.1153H170.018C170.2 26.7956 170.622 27.3883 171.206 27.7857C171.884 28.2073 172.674 28.4157 173.472 28.3833C173.939 28.4038 174.405 28.3322 174.844 28.1728C175.283 28.0134 175.685 27.7693 176.029 27.4545C176.375 27.0772 176.639 26.6334 176.806 26.1504C176.973 25.6675 177.039 25.1556 176.999 24.6465V21.6441C176.656 22.5775 176.018 23.3756 175.181 23.9193C174.27 24.5041 173.202 24.8004 172.118 24.7689C170.984 24.786 169.868 24.4867 168.896 23.9049C167.919 23.306 167.141 22.4346 166.659 21.3993C166.124 20.1847 165.848 18.8732 165.848 17.5473C165.848 16.2214 166.124 14.9099 166.659 13.6953C167.143 12.6633 167.921 11.7949 168.896 11.1969C169.868 10.6151 170.984 10.3158 172.118 10.3329C173.2 10.2981 174.267 10.5865 175.181 11.1609ZM170.533 14.5449C169.81 15.3716 169.441 16.4465 169.504 17.5401C169.438 18.6318 169.808 19.7055 170.533 20.5281C171.256 21.2274 172.225 21.6187 173.233 21.6187C174.242 21.6187 175.211 21.2274 175.934 20.5281C176.622 19.6881 176.998 18.6379 176.998 17.5545C176.998 16.4711 176.622 15.4209 175.934 14.5809C175.215 13.8747 174.245 13.4788 173.233 13.4788C172.222 13.4788 171.252 13.8747 170.533 14.5809V14.5449Z" fill="#001F3F"/>
<path d="M192.878 11.6204C193.925 12.5 194.615 13.7284 194.819 15.0764H191.444C191.335 14.445 191.01 13.8703 190.525 13.4492C189.999 13.0233 189.334 12.8053 188.656 12.8372C188.137 12.8041 187.623 12.9574 187.208 13.2692C187.039 13.4128 186.905 13.5935 186.817 13.797C186.729 14.0006 186.689 14.2216 186.701 14.4428C186.695 14.6189 186.729 14.7941 186.799 14.9559C186.869 15.1177 186.974 15.2621 187.107 15.3788C187.409 15.6318 187.758 15.8227 188.135 15.9404C188.54 16.0772 189.127 16.2356 189.895 16.4228C190.785 16.5994 191.661 16.8401 192.516 17.1428C193.191 17.4072 193.788 17.8354 194.254 18.3884C194.766 19.0446 195.023 19.8627 194.978 20.6924C194.989 21.2592 194.863 21.8204 194.611 22.329C194.359 22.8376 193.988 23.2787 193.53 23.6156C192.421 24.4117 191.072 24.8056 189.706 24.7316C188.136 24.8096 186.583 24.3774 185.282 23.5004C184.724 23.0788 184.258 22.5497 183.911 21.9448C183.564 21.3398 183.343 20.6714 183.262 19.9796H186.716C186.746 20.3017 186.844 20.6139 187.002 20.8965C187.16 21.1791 187.376 21.4259 187.635 21.6212C188.24 22.0422 188.969 22.2523 189.706 22.2188C190.215 22.2528 190.717 22.0932 191.111 21.7724C191.272 21.6256 191.398 21.4459 191.482 21.2458C191.566 21.0456 191.605 20.8298 191.596 20.6132C191.603 20.4282 191.57 20.2439 191.497 20.0734C191.424 19.9029 191.315 19.7504 191.176 19.6268C190.874 19.3565 190.515 19.1551 190.126 19.0364C189.714 18.9068 189.12 18.7412 188.352 18.554C187.481 18.3699 186.622 18.1294 185.782 17.834C185.125 17.5896 184.544 17.1803 184.094 16.646C183.586 16.0157 183.328 15.2212 183.37 14.414C183.355 13.8437 183.474 13.2778 183.718 12.7615C183.962 12.2452 184.324 11.7928 184.775 11.4404C185.897 10.6185 187.273 10.2135 188.664 10.2956C190.184 10.2133 191.682 10.6842 192.878 11.6204Z" fill="#001F3F"/>
</g>
<defs>
<clipPath id="clip0_814_40">
<rect width="195" height="36" fill="white"/>
</clipPath>
</defs>
</svg>
