<svg width="292" height="54" viewBox="0 0 292 54" fill="none" xmlns="http://www.w3.org/2000/svg">
<g clip-path="url(#clip0_506_41808)">
<path d="M27.1542 6.28561V0C19.9525 0 13.0457 2.84463 7.95329 7.90811C2.86088 12.9716 0 19.8392 0 27C0 34.1608 2.86088 41.0284 7.95329 46.0919C13.0457 51.1554 19.9525 54 27.1542 54V47.7144C22.1714 47.7164 17.3522 45.9462 13.5674 42.7236C9.78255 39.501 7.28181 35.0386 6.51702 30.1428H21.05V23.8572H6.56046C7.32411 18.9687 9.81854 14.5121 13.5943 11.2904C17.3701 8.06879 22.1789 6.29391 27.1542 6.28561Z" fill="#001F3F"/>
<path d="M45.7278 17.5716H52.6358C50.7001 12.4067 47.2209 7.95457 42.6658 4.81342C38.1106 1.67227 32.6977 -0.00742437 27.1543 2.46691e-05V6.28563C30.9955 6.28248 34.7628 7.33478 38.0404 9.32638C41.318 11.318 43.9784 14.1714 45.7278 17.5716Z" fill="#FFB802"/>
<path d="M54.1244 23.8574H33.0961V30.143H47.7485C46.9859 35.0398 44.4857 39.5034 40.7004 42.7264C36.9152 45.9494 32.0948 47.7188 27.1113 47.7146V54.0002C34.3131 54.0002 41.2199 51.1556 46.3123 46.0921C51.4047 41.0286 54.2656 34.1611 54.2656 27.0002C54.2787 25.9508 54.2315 24.9015 54.1244 23.8574Z" fill="#FFB802"/>
<path d="M80.083 14.223V21.1998H89.6738V25.3254H80.083V32.5722H90.8252V36.8922H74.6738V9.95703H90.8252V14.223H80.083Z" fill="#001F3F"/>
<path d="M113.331 17.8526C114.891 19.747 115.667 22.16 115.504 24.6026V36.8822H110.127V25.2074C110.215 23.786 109.748 22.3855 108.824 21.2978C108.364 20.8263 107.808 20.458 107.194 20.2177C106.579 19.9774 105.92 19.8706 105.261 19.9046C104.576 19.875 103.892 19.9929 103.256 20.2501C102.621 20.5073 102.049 20.8978 101.579 21.395C100.589 22.59 100.095 24.1161 100.199 25.661V36.8822H94.7686V15.7466H100.199V19.9802C100.73 18.5929 101.708 17.4195 102.98 16.643C104.323 15.8298 105.872 15.414 107.444 15.4442C108.543 15.3914 109.64 15.5798 110.658 15.9961C111.675 16.4123 112.588 17.0462 113.331 17.8526Z" fill="#001F3F"/>
<path d="M140.072 27.3458H124.496C124.439 28.8779 124.989 30.3713 126.028 31.5038C126.983 32.3915 128.251 32.8689 129.558 32.8322C130.672 32.8722 131.769 32.5541 132.686 31.925C133.508 31.3225 134.073 30.4366 134.272 29.441H139.996C139.724 30.8871 139.106 32.2468 138.193 33.4046C137.251 34.5927 136.032 35.5343 134.641 36.1478C133 36.8542 131.222 37.1915 129.435 37.1355C127.647 37.0795 125.894 36.6316 124.301 35.8238C122.71 34.9619 121.405 33.6602 120.543 32.0762C119.664 30.2774 119.207 28.3035 119.207 26.3036C119.207 24.3037 119.664 22.3298 120.543 20.531C121.398 18.9421 122.705 17.6387 124.301 16.7834C126.006 15.8978 127.907 15.4521 129.83 15.4874C131.743 15.4429 133.636 15.8893 135.326 16.7834C136.856 17.6045 138.122 18.8402 138.975 20.3474C139.849 21.9271 140.291 23.7071 140.257 25.5098C140.247 26.1259 140.185 26.7401 140.072 27.3458ZM133.447 21.0494C132.458 20.1594 131.162 19.6835 129.83 19.721C128.477 19.6834 127.161 20.1582 126.147 21.0494C125.622 21.5614 125.204 22.1731 124.921 22.8484C124.637 23.5237 124.493 24.2488 124.496 24.9806H134.793C134.883 24.2667 134.808 23.542 134.575 22.861C134.341 22.18 133.956 21.5606 133.447 21.0494Z" fill="#001F3F"/>
<path d="M152.65 16.6102C153.963 15.8319 155.466 15.4284 156.995 15.4438V21.2002H155.431C151.477 21.2002 149.489 23.0362 149.489 26.6974V36.8818H144.059V15.7462H149.489V19.7962C150.251 18.4826 151.34 17.3856 152.65 16.6102Z" fill="#001F3F"/>
<path d="M172.94 16.7397C174.188 17.5508 175.14 18.7399 175.655 20.1309V15.7461H181.032V36.9573C181.06 38.7846 180.658 40.5932 179.859 42.2385C179.09 43.7805 177.876 45.0591 176.372 45.9105C174.65 46.8475 172.708 47.3098 170.746 47.2497C168.092 47.3777 165.473 46.6171 163.305 45.0897C161.417 43.6447 160.176 41.5187 159.851 39.1713H165.206C165.483 40.193 166.118 41.0821 166.998 41.6769C168.011 42.3098 169.192 42.6224 170.387 42.5734C171.087 42.6052 171.787 42.4985 172.445 42.2593C173.103 42.0202 173.707 41.6533 174.221 41.1801C174.743 40.6157 175.141 39.9501 175.392 39.2253C175.642 38.5005 175.739 37.732 175.677 36.9682V32.4645C175.162 33.8617 174.21 35.0578 172.961 35.8773C171.591 36.7548 169.985 37.1991 168.356 37.1517C166.655 37.1757 164.981 36.7269 163.523 35.8558C162.057 34.9574 160.89 33.6503 160.166 32.0973C159.371 30.2736 158.961 28.3071 158.961 26.3193C158.961 24.3316 159.371 22.3651 160.166 20.5413C160.894 18.9934 162.06 17.6907 163.523 16.7937C164.981 15.9226 166.655 15.4738 168.356 15.4977C169.974 15.4497 171.57 15.8821 172.94 16.7397ZM165.956 21.8157C164.88 23.0598 164.331 24.6703 164.424 26.3085C164.327 27.9441 164.876 29.5526 165.956 30.7905C167.042 31.8402 168.498 32.4274 170.012 32.4274C171.527 32.4274 172.983 31.8402 174.069 30.7905C175.096 29.5279 175.656 27.9536 175.656 26.3301C175.656 24.7067 175.096 23.1323 174.069 21.8697C172.988 20.8098 171.531 20.2156 170.012 20.2156C168.494 20.2156 167.037 20.8098 165.956 21.8697V21.8157Z" fill="#001F3F"/>
<path d="M189.58 15.7461L195.369 30.0885L200.8 15.7461H206.741L193.707 46.9473H187.722L192.512 36.2661L183.584 15.7461H189.58Z" fill="#001F3F"/>
<path d="M230.328 12.106C232.488 13.6976 233.978 16.0297 234.51 18.6508H228.829C228.305 17.4378 227.412 16.4183 226.276 15.7348C225.038 14.9866 223.608 14.6115 222.16 14.6548C220.707 14.6287 219.274 15.0024 218.021 15.7348C216.808 16.4559 215.834 17.5147 215.219 18.7803C214.521 20.2318 214.179 21.8269 214.22 23.4351C214.073 25.848 214.894 28.2204 216.501 30.0339C217.316 30.8396 218.292 31.4663 219.366 31.8737C220.44 32.2811 221.588 32.4601 222.735 32.3992C224.558 32.442 226.335 31.8326 227.743 30.682C229.179 29.4595 230.136 27.7733 230.447 25.9191H221.291V22.0635H234.977V27.2475C234.595 29.0297 233.832 30.7093 232.739 32.1723C231.598 33.6969 230.109 34.9296 228.394 35.7687C226.468 36.7038 224.346 37.1702 222.203 37.1296C219.744 37.1783 217.315 36.5783 215.165 35.3907C213.157 34.264 211.52 32.5836 210.451 30.5523C209.351 28.3412 208.778 25.9075 208.778 23.4406C208.778 20.9736 209.351 18.5399 210.451 16.3287C211.52 14.2967 213.147 12.6078 215.143 11.4579C217.282 10.2605 219.705 9.65631 222.16 9.70835C225.072 9.60097 227.941 10.4429 230.328 12.106Z" fill="#001F3F"/>
<path d="M239.342 7.55933C240.011 6.98912 240.874 6.69538 241.754 6.73854C242.636 6.697 243.502 6.99037 244.176 7.55933C244.479 7.82958 244.719 8.16359 244.877 8.53717C245.034 8.91076 245.107 9.31455 245.088 9.71933C245.099 10.1104 245.023 10.4991 244.865 10.8576C244.707 11.216 244.472 11.5354 244.176 11.7929C243.502 12.3619 242.636 12.6553 241.754 12.6137C240.874 12.6569 240.011 12.3631 239.342 11.7929C239.042 11.5379 238.804 11.2193 238.644 10.8604C238.484 10.5015 238.407 10.1116 238.419 9.71933C238.4 9.31342 238.472 8.90837 238.632 8.53437C238.792 8.16037 239.035 7.82707 239.342 7.55933ZM244.436 15.7349V36.8705H239.006V15.7457L244.436 15.7349Z" fill="#001F3F"/>
<path d="M262.272 16.7404C263.526 17.5479 264.482 18.7378 264.998 20.1316V15.7468H270.364V36.958C270.39 38.7838 269.992 40.5909 269.202 42.2391C268.434 43.7849 267.215 45.0646 265.704 45.9112C263.986 46.8482 262.047 47.3106 260.089 47.2504C257.436 47.3783 254.816 46.6178 252.649 45.0904C250.76 43.6454 249.519 41.5193 249.195 39.1719H254.528C254.8 40.1924 255.432 41.0815 256.309 41.6775C257.325 42.31 258.51 42.6225 259.709 42.574C260.409 42.6047 261.108 42.4974 261.766 42.2583C262.424 42.0191 263.028 41.6529 263.543 41.1808C264.062 40.6148 264.459 39.9491 264.709 39.2246C264.96 38.5002 265.058 37.7325 264.998 36.9688V32.4652C264.483 33.8653 263.527 35.0625 262.272 35.878C260.905 36.7552 259.303 37.1996 257.678 37.1523C255.976 37.178 254.302 36.7291 252.844 35.8564C251.379 34.958 250.212 33.6509 249.488 32.098C248.686 30.2761 248.271 28.3088 248.271 26.3199C248.271 24.3311 248.686 22.3638 249.488 20.542C250.215 18.994 251.382 17.6913 252.844 16.7944C254.302 15.9216 255.976 15.4727 257.678 15.4984C259.299 15.4462 260.9 15.8788 262.272 16.7404ZM255.299 21.8163C254.215 23.0565 253.661 24.6688 253.756 26.3092C253.657 27.9468 254.211 29.5573 255.299 30.7911C256.384 31.8401 257.837 32.427 259.35 32.427C260.863 32.427 262.317 31.8401 263.402 30.7911C264.434 29.5311 264.997 27.9558 264.997 26.3308C264.997 24.7057 264.434 23.1304 263.402 21.8704C262.322 20.8111 260.867 20.2172 259.35 20.2172C257.834 20.2172 256.378 20.8111 255.299 21.8704V21.8163Z" fill="#001F3F"/>
<path d="M288.818 17.4306C290.389 18.75 291.423 20.5926 291.729 22.6146H286.667C286.503 21.6675 286.016 20.8055 285.288 20.1738C284.499 19.5349 283.501 19.208 282.485 19.2558C281.707 19.2062 280.936 19.4361 280.313 19.9038C280.059 20.1193 279.858 20.3902 279.726 20.6956C279.594 21.0009 279.535 21.3324 279.553 21.6642C279.544 21.9283 279.594 22.1911 279.699 22.4339C279.804 22.6766 279.962 22.8932 280.161 23.0682C280.614 23.4477 281.138 23.734 281.703 23.9106C282.312 24.1158 283.191 24.3534 284.343 24.6342C285.678 24.8992 286.992 25.2601 288.275 25.7142C289.287 26.1108 290.183 26.7532 290.882 27.5826C291.651 28.5668 292.036 29.7941 291.968 31.0386C291.984 31.8888 291.795 32.7306 291.418 33.4935C291.04 34.2563 290.483 34.9181 289.795 35.4234C288.133 36.6175 286.108 37.2084 284.06 37.0974C281.705 37.2144 279.376 36.5662 277.424 35.2506C276.587 34.6183 275.888 33.8246 275.367 32.9172C274.847 32.0097 274.515 31.0071 274.394 29.9694H279.575C279.62 30.4525 279.766 30.9209 280.004 31.3448C280.241 31.7687 280.565 32.1389 280.954 32.4318C281.862 33.0633 282.954 33.3785 284.06 33.3282C284.823 33.3791 285.576 33.1397 286.168 32.6586C286.408 32.4384 286.598 32.1689 286.724 31.8687C286.849 31.5685 286.908 31.2447 286.895 30.9198C286.906 30.6423 286.855 30.3658 286.746 30.1101C286.637 29.8544 286.473 29.6256 286.265 29.4402C285.811 29.0348 285.274 28.7326 284.69 28.5546C284.071 28.3602 283.181 28.1118 282.029 27.831C280.722 27.5548 279.434 27.1941 278.173 26.751C277.189 26.3844 276.317 25.7704 275.643 24.969C274.879 24.0235 274.493 22.8317 274.556 21.621C274.534 20.7656 274.712 19.9168 275.078 19.1423C275.444 18.3678 275.987 17.6892 276.664 17.1606C278.346 15.9278 280.41 15.3202 282.496 15.4434C284.776 15.32 287.024 16.0264 288.818 17.4306Z" fill="#001F3F"/>
</g>
<defs>
<clipPath id="clip0_506_41808">
<rect width="292" height="54" fill="white"/>
</clipPath>
</defs>
</svg>
